<svg xmlns="http://www.w3.org/2000/svg" width="27.5" height="27.5" viewBox="0 0 27.5 27.5">
  <path id="user-circle" d="M1520.75,1395a13.75,13.75,0,1,0-22.1,10.9l.017.013a13.654,13.654,0,0,0,16.674,0l.018-.013A13.722,13.722,0,0,0,1520.75,1395Zm-25.581,0a11.831,11.831,0,1,1,20.258,8.291c-.573-2.432-2.412-4.684-6.239-4.684h-4.374c-3.827,0-5.666,2.253-6.239,4.684A11.79,11.79,0,0,1,1495.169,1395Zm5.128,9.738a4.14,4.14,0,0,1,4.516-4.212h4.374a4.14,4.14,0,0,1,4.516,4.212,11.778,11.778,0,0,1-13.407,0Zm6.714-7.5a4.8,4.8,0,1,0-4.8-4.8A4.8,4.8,0,0,0,1507.01,1397.238Zm0-7.674a2.878,2.878,0,1,1-2.878,2.878A2.881,2.881,0,0,1,1507.01,1389.564Z" transform="translate(-1493.25 -1381.25)" fill="#438fce"/>
</svg>
